<?xml version="1.0" encoding="UTF-8"?>
<svg xmlns="http://www.w3.org/2000/svg" xmlns:xlink="http://www.w3.org/1999/xlink" viewBox="0 0 48 48" version="1.1" width="48px" height="48px">
  <g id="surface1">
    <path style=" fill:#4CAF50;" d="M 43 24 C 43 34.492188 34.492188 43 24 43 C 13.507813 43 5 34.492188 5 24 C 5 13.507813 13.507813 5 24 5 C 34.492188 5 43 13.507813 43 24 Z "/>
    <path style=" fill:#FFC107;" d="M 24 5 L 24 24 L 32 28 L 23.199219 43 C 23.5 43 23.699219 43 24 43 C 34.5 43 43 34.5 43 24 C 43 13.5 34.5 5 24 5 Z "/>
    <path style=" fill:#F44336;" d="M 16 28 L 24 15 L 40.699219 15 C 37.5 9 31.199219 5 24 5 C 17.300781 5 11.398438 8.5 8 13.800781 Z "/>
    <path style=" fill:#DD2C00;" d="M 8 13.800781 L 16 28 L 21 27 Z "/>
    <path style=" fill:#F9A825;" d="M 40.601563 15 L 24 15 L 22.5 19.800781 Z "/>
    <path style=" fill:#558B2F;" d="M 23.199219 43 L 32 28 L 28.199219 24.898438 Z "/>
    <path style=" fill:#FFFFFF;" d="M 33 24 C 33 28.96875 28.96875 33 24 33 C 19.03125 33 15 28.96875 15 24 C 15 19.03125 19.03125 15 24 15 C 28.96875 15 33 19.03125 33 24 Z "/>
    <path style=" fill:#2196F3;" d="M 31 24 C 31 27.867188 27.867188 31 24 31 C 20.132813 31 17 27.867188 17 24 C 17 20.132813 20.132813 17 24 17 C 27.867188 17 31 20.132813 31 24 Z "/>
  </g>
</svg>
